{"title":"Edge.of.Tomorrow.2014.1080p.H264.AAC.6ch.MP4.Raven","uid":11007807,"size":1462608906,"categoryP":"video","categoryS":"hd___movies","magnet":"?xt=urn:btih:90a8d01aa091473401e527152e60522978a81153&amp;dn=Edge.of.Tomorrow.2014.1080p.H264.AAC.6ch.MP4.Raven&amp;tr=udp%3A%2F%2Ftracker.openbittorrent.com%3A80&amp;tr=udp%3A%2F%2Fopen.demonii.com%3A1337&amp;tr=udp%3A%2F%2Ftracker.coppersurfer.tk%3A6969&amp;tr=udp%3A%2F%2Fexodus.desync.com%3A6969","seeders":2,"leechers":0,"uploader":"Raven1969","files":-1,"time":1410275537,"description":"Edge.of.Tomorrow.2014.1080p.H264.AAC.6ch.MP4.Raven.\n\n\n\n\n\nScreen images:\n\n\n\n\n &lt;a href=&quot;\nhttp://i.imgur.com/OWDWwox.png&quot; rel=&quot;nofollow&quot; target=&quot;_NEW&quot;&gt;\nhttp://i.imgur.com/OWDWwox.png&lt;/a&gt;\n\n\n &lt;a href=&quot;\nhttp://i.imgur.com/MxlRL1L.png&quot; rel=&quot;nofollow&quot; target=&quot;_NEW&quot;&gt;\nhttp://i.imgur.com/MxlRL1L.png&lt;/a&gt;\n\n\n &lt;a href=&quot;\nhttp://i.imgur.com/UrtVdt0.png&quot; rel=&quot;nofollow&quot; target=&quot;_NEW&quot;&gt;\nhttp://i.imgur.com/UrtVdt0.png&lt;/a&gt;\n\n\n &lt;a href=&quot;\nhttp://i.imgur.com/iZvan1S.png&quot; rel=&quot;nofollow&quot; target=&quot;_NEW&quot;&gt;\nhttp://i.imgur.com/iZvan1S.png&lt;/a&gt;\n\n\n &lt;a href=&quot;\nhttp://i.imgur.com/dcUIKF3.png&quot; rel=&quot;nofollow&quot; target=&quot;_NEW&quot;&gt;\nhttp://i.imgur.com/dcUIKF3.png&lt;/a&gt;\n\n\n &lt;a href=&quot;\nhttp://i.imgur.com/Bqe2Sca.png&quot; rel=&quot;nofollow&quot; target=&quot;_NEW&quot;&gt;\nhttp://i.imgur.com/Bqe2Sca.png&lt;/a&gt;\n\n\n\n\n\n\n\nIMDB:\n\n\n\n\n\n &lt;a href=&quot;\nhttp://www.imdb.com/title/tt1631867&quot; rel=&quot;nofollow&quot; target=&quot;_NEW&quot;&gt;\nhttp://www.imdb.com/title/tt1631867&lt;/a&gt;\n\n\n\n\n\n\n\nIMDB Rating:  8.1\n\n\n\n\n\nStoryline:\n\nAn officer finds himself caught in a time loop in a war with an alien race. His skills increase as he faces the same brutal combat scenarios, and his union with a Special Forces warrior gets him closer and closer to defeating the enemy.\n\nAn alien race has hit the Earth in an unrelenting assault, unbeatable by any military unit in the world. Major William Cage (Cruise) is an officer who has never seen a day of combat when he is unceremoniously dropped into what amounts to a suicide mission. Killed within minutes, Cage now finds himself inexplicably thrown into a time loop-forcing him to live out the same brutal combat over and over, fighting and dying again...and again. But with each battle, Cage becomes able to engage the adversaries with increasing skill, alongside Special Forces warrior Rita Vrataski (Blunt). And, as Cage and Vrataski take the fight to the aliens, each repeated encounter gets them one step closer to defeating the enemy.\n\n\n\n\n\nGeneral\n\n\n\n\nFormat                                   : MPEG-4\nFile size                                : 1.36 GiB\nDuration                                 : 1h 53mn\nOverall bit rate mode                    : Variable\nOverall bit rate                         : 1 715 Kbps\nMovie name                               : Edge of Tomorrow\nPerformer                                : Raven\nGenre                                    : Action &amp; Science Fiction\nRecorded date                            : 2014-06-06\nCopyright                                : F**k The MPAA\nTitle/Sort                               : Edge of Tomorrow\nLongDescription                          : Major Bill Cage (Cruise) is an officer who has never seen a day of combat when he is unceremoniously demoted and dropped into combat. Cage is killed within minutes, managing to take an alpha alien down with him. He awakens back at the beginning of the same day and is forced to fight and die again... and again - as physical contact with the alien has thrown him into a time loop.\nContentRating                            : mpaa|PG-13|\n\n\n\n\n\nVideo\n\n\n\n\n\nFormat                                   : AVC\nFormat/Info                              : Advanced Video Codec\nFormat profile                           : &lt;a class=&quot;__cf_email__&quot; href=&quot;/cdn-cgi/l/email-protection&quot; data-cfemail=&quot;1b567a72755b572f352a&quot;&gt;[email&amp;#160;protected]&lt;/a&gt;&lt;script cf-hash='f9e31' type=&quot;text/javascript&quot;&gt;\n/* &lt;![CDATA[ */!function(){try{var t=&quot;currentScript&quot;in document?document.currentScript:function(){for(var t=document.getElementsByTagName(&quot;script&quot;),e=t.length;e--;)if(t[e].getAttribute(&quot;cf-hash&quot;))return t[e]}();if(t&amp;&amp;t.previousSibling){var e,r,n,i,c=t.previousSibling,a=c.getAttribute(&quot;data-cfemail&quot;);if(a){for(e=&quot;&quot;,r=parseInt(a.substr(0,2),16),n=2;a.length-n;n+=2)i=parseInt(a.substr(n,2),16)^r,e+=String.fromCharCode(i);e=document.createTextNode(e),c.parentNode.replaceChild(e,c)}}}catch(u){}}();/* ]]&gt; */&lt;/script&gt;\nCodec ID/Info                            : Advanced Video Coding\nDuration                                 : 1h 53mn\nBit rate                                 : 1 515 Kbps\nMaximum bit rate                         : 8 849 Kbps\nWidth                                    : 1 916 pixels\nHeight                                   : 796 pixels\nDisplay aspect ratio                     : 2.40:1\nFrame rate mode                          : Constant\nFrame rate                               : 23.976 fps\nBit depth                                : 8 bits\nScan type                                : Progressive\nStream size                              : 1.20 GiB (88%)\nWriting library                          : x264 \nLanguage                                 : English\n\n\n\n\n\n\n\nAudio\n\n\n\n\nFormat                                   : AAC\nFormat/Info                              : Advanced Audio Codec\nFormat profile                           : LC\nCodec ID                                 : 40\nDuration                                 : 1h 53mn\nBit rate mode                            : Variable\nBit rate                                 : 192 Kbps\nMaximum bit rate                         : 305 Kbps\nOriginal Channel count                   : 6 channels\nChannel positions                        : Front: L C R, Side: L R, LFE\nSampling rate                            : 48.0 KHz\nCompression mode                         : Lossy\nStream size                              : 156 MiB (11%)\nLanguage                                 : English\n\n\n\n\n\nText #1\nID                                       : 3\nFormat                                   : Timed Text\nMuxing mode                              : sbtl\nCodec ID                                 : tx3g\nDuration                                 : 1h 47mn\nBit rate mode                            : Variable\nBit rate                                 : 101 bps\nStream size                              : 79.8 KiB (0%)\nLanguage                                 : English\n\n\n\n\n\nText #2\nID                                       : 4\nFormat                                   : Timed Text\nMuxing mode                              : sbtl\nCodec ID                                 : tx3g\nDuration                                 : 1h 47mn\nBit rate mode                            : Variable\nBit rate                                 : 78 bps\nStream size                              : 62.0 KiB (0%)\nLanguage                                 : Swedish\n\n\n\n\n\nText #3\nID                                       : 5\nFormat                                   : Timed Text\nMuxing mode                              : sbtl\nCodec ID                                 : tx3g\nDuration                                 : 1h 47mn\nBit rate mode                            : Variable\nBit rate                                 : 75 bps\nStream size                              : 59.4 KiB (0%)\nLanguage                                 : Spanish\n\n\n\nPLEASE  SEED FOR AS LONG AS POSSIBLE TO KEEP THE TORRENT ALIVE :-)","torrent":{"xt":"urn:btih:90a8d01aa091473401e527152e60522978a81153","amp;dn":"Edge.of.Tomorrow.2014.1080p.H264.AAC.6ch.MP4.Raven","amp;tr":["udp%3A%2F%2Ftracker.openbittorrent.com%3A80","udp%3A%2F%2Fopen.demonii.com%3A1337","udp%3A%2F%2Ftracker.coppersurfer.tk%3A6969","udp%3A%2F%2Fexodus.desync.com%3A6969"],"infoHash":"90a8d01aa091473401e527152e60522978a81153","infoHashBuffer":{"type":"Buffer","data":[144,168,208,26,160,145,71,52,1,229,39,21,46,96,82,41,120,168,17,83]},"announce":[],"urlList":[]}}